<?xml version="1.0" encoding="utf-8"?>
<svg id="Camada_1" data-name="Camada 1" viewBox="0 0 315.76 137.23" xmlns="http://www.w3.org/2000/svg">
  <defs>
    <style>.cls-1{fill:#fafafa}</style>
  </defs>
  <path d="M315.76 116.77v-1.41a14.1 14.1 0 0 0-3.81-9.65 14.11 14.11 0 0 0 3.72-9.29v-4.24a13.58 13.58 0 0 0-13.27-13.57h-41a13.57 13.57 0 0 0-13.56 13.28V103a6.7 6.7 0 0 0 6.71 6.71h.14a6.7 6.7 0 0 0 6.71-6.71v-4.22a6.78 6.78 0 0 1 6.78-6.6h29.75a4.51 4.51 0 0 1 0 9h-19.94a4.53 4.53 0 0 0 0 9.05h18.55c3 .13 5.72 1.78 5.72 6.33v.3c0 .94-.53 6.71-6.86 6.71h-41.27a6.72 6.72 0 0 1-4.66-1.93l-40.91-40.91a6.78 6.78 0 0 0-10.16-.03l-40.8 41a6.76 6.76 0 0 1-4.66 1.93H122.4a6.78 6.78 0 0 1-6.78-6.78V85.12a6.72 6.72 0 0 0-6.72-6.72h-.13a6.72 6.72 0 0 0-6.72 6.72v38.81a13.56 13.56 0 0 0 13.56 13.28h40.1a13.52 13.52 0 0 0 10.19-4.62l34.36-34.36a4.53 4.53 0 0 1 3.26-1.39c1.36 0 2 .27 3.41 1.57l34.2 34.2a13.54 13.54 0 0 0 10.2 4.62h50.82a13.56 13.56 0 0 0 13.56-13.28v-7.14zM52.68 19.86 68.4 6.78M52.67 19.86l13.47 16.52m-25-1.42 11.56-15.1m0 0L49.4 55.8m-15.18-1.37 6.94-19.47M49.4 55.8l16.79-19.42m2.63 23.07L49.4 55.8M57 81.5l-7.6-25.7m0 0-7 15.33m0 0-8.15-16.7m0 0-6.22 17.18m29 9.89L42.4 71.13M57.03 81.5l11.82-22.05M56.96 81.5l24.07.82m-24.07-.82 23.64 19.2M56.96 81.5l-10.13 24.33m-4.81-18.55 4.81 18.55m-4.5-34.7-.31 16.15m.31-16.15L27.09 87.47m.87-15.86-.87 15.86M6.79 69.94l21.17 1.67m-.87 15.86L6.79 69.94m0 0 2-27.11m13.61 1.62 5.53 27.16M6.76 69.94 22.4 44.45M8.77 42.83l24.1-26.56m6.57 18.75-17.51 10.2m11.79-29L39.44 35m-5.72-18.78L22.4 44.45m18.69-9.49L49.4 55.8M33.79 16.24 68.4 6.78m-21.58 99 34.2-23.51m-16.44 28.5-7.63-29.32m18.52 39.64 5.13-20.39m0 0-16 10.16m-18.05-4.21 18.05 4.21m0 0-2.7 18.68m.13-.91-15.48-22m28.94 14.53-13.46 7.45m2.67-18.8 10.79 11.35m0 0 12.28 10.34m-60.67-44 14.93-.19m0 0L27.97 71.64m0 0 29 9.89M49.4 55.8l31.67 26.52m6.33 49.55-12-10.17-12.95 7.17-.1.66-1-.15.11-.71-15.33-21.77.41-.29.11-.49.46.11-.28-.4-.48.12-4.71-18.16-14.55.18v-.5l-.33.38-20.3-17.53.33-.38h-.5l2-27.11h.5l-.37-.34 24.1-26.56.59.53.16-.41.47.19-.14-.48L68.27 6.3l.13.48.32.39L53.4 19.93l13.15 16.14-.39.31.38.33-16.22 18.76 18.56 3.49-.09.49.44.23-4.48 8.35 16.65 13.9-.32.39.28.41-11.96 8.2 11.53 9.34-.32.39.49.12-5.05 20.17L88.1 131.1zm-22.39-20.75-2.35 16.58 12-6.65-9.5-10zM47.7 107.4l14 19.87 2.33-16.07zm18.35 3.09 9.17 9.64 4.59-18.38zm-1.46.33zm-17.47-4.59 16.78 3.91-3.41-13.09zm17.93 3.21.29.31 14.41-9.14-11.22-9.09-7.13 4.92 3.41 13.26zm-8.2-26.37-8.91 21.39 12.28-8.44zm-14.33 4.15 4.42 17 9.35-22.46-13.57-4.63zm15.3-4.37 3.28 12.56 6.62-4.55zm.61-.8 10.15 8.22 10.91-7.5zm-23.65-2.1-6.53 7 12.66-.15zM8.27 70.56l18.37 15.86.8-14.35zm20.13 2.28-.73 13.28 6.45-6.91zm7.07 6.38L41.56 86l.17-9.17-3.05-1zm22.32 1.81 21.81.74-15.33-12.84zM42.97 70.96l13.11 9.3-6.81-23zm7.35-13.71 6.78 22.94 6.39-11.91zm-7.57 18.87 11.12 3.8-11-7.84zM29.61 72.7l5.18 5.77 2.84-3zm9.8 2.29 2.33.79.07-3.36zm-10.8-3.69 9.77 3.33 3.35-3.59-7.49-15.34zm-21-1.79 19.7 1.55-5.14-25.27zM34.69 54.4l7.6 15.56 6.5-14.17-7.67-19.41zm-11.64-9.26 5 24.62 5.61-15.5 6.94-19.47.47.17-.4-.3 11.57-15.1.39.3-.31-.38L66.27 7.87 34.4 16.58l5.57 18.29-.47.15.25.43zm-13.79-2.1L7.4 67.92l14.54-23.7 10.92-27.21zM51.15 56.7l12.81 10.73 4.06-7.57zm-17-2.22zm18.89-33.3L50 54.3l15.5-17.93zM41.66 35.09l7.4 18.61 3-32.12zm-8-17.3-10.5 26.19 15.69-9.14z" class="cls-1"/>
  <circle cx="32.9" cy="16.27" r="6.78" class="cls-1" style="fill: rgb(254, 135, 42);"/>
  <circle cx="80.6" cy="100.66" r="6.78" class="cls-1" style="fill: rgb(254, 135, 42);"/>
  <circle cx="56.96" cy="81.51" r="6.78" class="cls-1" style="fill: rgb(254, 135, 42);"/>
  <circle cx="46.83" cy="105.83" r="6.78" class="cls-1" style="fill: rgb(254, 135, 42);"/>
  <circle cx="61.93" cy="128.6" r="4.52" class="cls-1" style="fill: rgb(254, 135, 42);"/>
  <circle cx="81.03" cy="82.32" r="4.52" class="cls-1" style="fill: rgb(254, 135, 42);"/>
  <circle cx="87.76" cy="131.49" r="4.52" class="cls-1" style="fill: rgb(254, 135, 42);"/>
  <circle cx="22.46" cy="45.42" r="4.52" class="cls-1" style="fill: rgb(254, 135, 42);"/>
  <circle cx="66.15" cy="36.39" r="4.52" class="cls-1" style="fill: rgb(254, 135, 42);"/>
  <circle cx="49.36" cy="55.81" r="4.52" class="cls-1" style="fill: rgb(254, 135, 42);"/>
  <circle cx="68.78" cy="59.45" r="4.52" class="cls-1" style="fill: rgb(254, 135, 42);"/>
  <circle cx="27.08" cy="87.47" r="4.52" class="cls-1" style="fill: rgb(254, 135, 42);"/>
  <circle cx="6.78" cy="69.94" r="6.78" class="cls-1" style="fill: rgb(254, 135, 42);"/>
  <circle cx="8.8" cy="42.83" r="3.39" class="cls-1" style="fill: rgb(254, 135, 42);"/>
  <circle cx="27.96" cy="71.61" r="3.39" class="cls-1" style="fill: rgb(254, 135, 42);"/>
  <circle cx="34.17" cy="54.43" r="3.39" class="cls-1" style="fill: rgb(254, 135, 42);"/>
  <circle cx="52.68" cy="19.87" r="3.39" class="cls-1" style="fill: rgb(254, 135, 42);"/>
  <circle cx="41.12" cy="34.97" r="3.39" class="cls-1" style="fill: rgb(254, 135, 42);"/>
  <circle cx="42.33" cy="71.13" r="3.39" class="cls-1" style="fill: rgb(254, 135, 42);"/>
  <circle cx="42.02" cy="87.29" r="3.39" class="cls-1" style="fill: rgb(254, 135, 42);"/>
  <circle cx="64.59" cy="110.82" r="3.39" class="cls-1" style="fill: rgb(254, 135, 42);"/>
  <circle cx="75.48" cy="121.14" r="3.39" class="cls-1" style="fill: rgb(254, 135, 42);"/>
  <circle cx="68.41" cy="6.78" r="6.78" class="cls-1" style="fill: rgb(254, 135, 42);"/>
  <path d="M217.3 15.24v-2.01a2.87 2.87 0 0 1-.05-.31c0-.13-.05-.27-.08-.41s0-.14 0-.21l-.12-.5v-.11c-.05-.2-.1-.4-.16-.59a14.14 14.14 0 0 0-23.12-6.16 14.13 14.13 0 0 0-23.95 9.76v50.27a4.53 4.53 0 1 0 9.05 0v-49.7c0-2.8 2.3-5.62 5.09-5.62s5 2.82 5 5.62v49.7a4.53 4.53 0 1 0 9.05 0V15.21a6 6 0 0 1 1.47-3.84 4.82 4.82 0 0 1 3.58-1.75c2.79 0 5.06 2.82 5.06 5.62v49.68a4.53 4.53 0 1 0 9 0zm-84.81 0v-2.01a2.87 2.87 0 0 1-.05-.31c0-.13-.05-.27-.08-.41s0-.14 0-.21l-.12-.5v-.11c-.05-.2-.11-.4-.16-.59a14.14 14.14 0 0 0-23.12-6.16 14.13 14.13 0 0 0-23.95 9.76v50.27a4.53 4.53 0 1 0 9.05 0v-49.7c0-2.8 2.3-5.62 5.09-5.62s5 2.82 5 5.62v49.7a4.52 4.52 0 1 0 9 0V15.21a6 6 0 0 1 1.47-3.84 4.82 4.82 0 0 1 3.58-1.75c2.79 0 5.06 2.82 5.06 5.62v49.68a4.53 4.53 0 1 0 9 0zm117.6-.17a14.14 14.14 0 0 0-28.27.14v40.1a14.14 14.14 0 0 0 28.27.14V15.07zm-9 40.24c0 2.79-2.3 5.62-5.09 5.62s-5.09-2.83-5.09-5.62v-40.1c0-2.79 2.3-5.61 5.09-5.61s5.09 2.82 5.09 5.61zm74.59-4.3a4.53 4.53 0 0 0-9 0v4.26c0 2.79-2.29 5.62-5.09 5.62-2.77 0-5-2.84-5-5.61V15.21c0-2.79 2.29-5.61 5.08-5.61s5.06 2.82 5.06 5.61v10.67c0 2.43-1.63 5-3.92 5.6h-.07a4.28 4.28 0 0 0 0 8.53h.07c7.79 0 13-6.34 13-14.13V14.7a14.14 14.14 0 0 0-28.26.42v40.34a14.14 14.14 0 0 0 14.13 14 14.14 14.14 0 0 0 14.14-14v-.09zm-150.4.37a4.52 4.52 0 1 0-9 0v4.25c0 2.79-2.3 5.62-5.09 5.62h-.05c-2.77 0-5-2.85-5-5.62V15.58c0-2.8 2.3-5.62 5.09-5.62s5.05 2.82 5.05 5.62v10.66c0 2.43-1.64 5-3.93 5.61h-.07a4.28 4.28 0 0 0 0 8.53h.07c7.79 0 13-6.35 13-14.14V15.01a14.14 14.14 0 0 0-28.26.42v40.34a14.13 14.13 0 0 0 14.14 14 14.13 14.13 0 0 0 14.13-14v-.09zm117.6-36.31a14.13 14.13 0 0 0-28.26.14v49.67a4.52 4.52 0 1 0 9 0V15.21c0-2.79 2.3-5.61 5.09-5.61s5.09 2.82 5.09 5.61v11.56a4.53 4.53 0 0 0 9 0v-11.7z" class="cls-1"/>
  <circle cx="202.97" cy="123.7" r="9.05" class="cls-1" style="fill: rgb(254, 135, 42);"/>
</svg>