<?xml version="1.0" encoding="UTF-8"?>
<svg id="Camada_1" data-name="Camada 1" xmlns="http://www.w3.org/2000/svg" version="1.1" viewBox="0 0 315.8 137.2">
  <defs>
    <style>
      .cls-1 {
        fill: #fe872a;
      }

      .cls-1, .cls-2 {
        stroke-width: 0px;
      }

      .cls-2 {
        fill: #0d1e2d;
      }
    </style>
  </defs>
  <path class="cls-2" d="M315.8,116.8v-1.4c0-3.6-1.4-7-3.8-9.7,2.3-2.5,3.7-5.8,3.7-9.3v-4.2c0-7.4-5.9-13.4-13.3-13.6h-41c-7.4,0-13.4,5.9-13.6,13.3v11.1c0,3.7,3,6.7,6.7,6.7,0,0,0,0,0,0h.1c3.7,0,6.7-3,6.7-6.7h0v-4.2c0-3.7,3.1-6.6,6.8-6.6h29.8c2.5.2,4.4,2.3,4.2,4.8-.2,2.3-1.9,4-4.2,4.2h-19.9c-2.5.1-4.4,2.2-4.3,4.7.1,2.3,2,4.2,4.3,4.3h18.5c3,.1,5.7,1.8,5.7,6.3v.3c0,.9-.5,6.7-6.9,6.7h-41.3c-1.7,0-3.4-.7-4.7-1.9l-40.9-40.9c-2.5-2.8-6.8-3.1-9.6-.6-.2.2-.4.4-.6.6l-40.8,41c-1.2,1.2-2.9,1.9-4.7,1.9h-30.5c-3.7,0-6.8-3-6.8-6.8v-31.7c0-3.7-3-6.7-6.7-6.7h-.1c-3.7,0-6.7,3-6.7,6.7h0v38.8c.2,7.4,6.2,13.3,13.6,13.3h40.1c3.9,0,7.6-1.7,10.2-4.6l34.4-34.4c.9-.9,2-1.4,3.3-1.4,1.4,0,2,.3,3.4,1.6l34.2,34.2c2.6,2.9,6.3,4.6,10.2,4.6h50.8c7.4,0,13.4-5.9,13.6-13.3v-7.1h0ZM52.7,19.9l15.7-13.1M52.7,19.9l13.5,16.5M34.2,54.4l6.9-19.5M68.8,59.4l-19.4-3.6M57,81.5l-7.6-25.7M49.4,55.8l-7,15.3M42.4,71.1l-8.2-16.7M34.2,54.4l-6.2,17.2M57,81.5l-14.6-10.4M57,81.5l11.8-22M57,81.5l24.1.8M57,81.5l23.6,19.2M57,81.5l-10.1,24.3M42,87.3l4.8,18.6M42.3,71.1l-.3,16.2M42.3,71.1l-15.2,16.3M28,71.6l-.9,15.9M6.8,69.9l21.2,1.7M27.1,87.5l-20.3-17.5M6.8,69.9l2-27.1M22.4,44.4l5.5,27.2M6.8,69.9l15.6-25.5M8.8,42.8l24.1-26.6M39.4,35l-17.5,10.2M33.7,16.2l5.7,18.8M33.7,16.2l-11.3,28.2M41.1,35l8.3,20.8M33.8,16.2l34.6-9.5M46.8,105.8l34.2-23.5M64.6,110.8l-7.6-29.3M75.5,121.1l5.1-20.4M80.6,100.7l-16,10.2M46.5,106.6l18,4.2M64.6,110.9l-2.7,18.7M62,128.6l-15.5-22M75.5,121.2l-13.5,7.4M64.7,109.8l10.8,11.3M75.5,121.2l12.3,10.3M27.1,87.5l14.9-.2M42,87.3l-14.1-15.7M28,71.6l29,9.9M49.4,55.8l31.7,26.5M87.4,131.9l-12-10.2-13,7.2v.7c0,0-1.1-.1-1.1-.1v-.7c.1,0-15.2-21.8-15.2-21.8l.4-.3v-.5c.1,0,.6.1.6.1l-.3-.4h-.5c0,.1-4.7-18-4.7-18l-14.5.2v-.5l-.3.4-20.3-17.5.3-.4h-.5l2-27.1h.5l-.4-.3,24.1-26.6.6.5.2-.4.5.2v-.5c-.1,0,34.5-9.5,34.5-9.5v.5c.1,0,.4.4.4.4l-15.3,12.8,13.2,16.1-.4.3.4.3-16.2,18.8,18.6,3.5v.5c0,0,.4.2.4.2l-4.5,8.4,16.7,13.9-.3.4.3.4-12,8.2,11.5,9.3-.3.4h.5c0,.1-5.1,20.3-5.1,20.3l12.1,10.2-.7.8ZM65,111.1l-2.3,16.6,12-6.7-9.5-10h-.2ZM47.7,107.4l14,19.9,2.3-16.1-16.3-3.8ZM66.1,110.5l9.2,9.6,4.6-18.4-13.8,8.7ZM47.1,106.2l16.8,3.9-3.4-13.1-13.4,9.2ZM65.1,109.4l.3.3,14.4-9.1-11.2-9.1-7.1,4.9,3.4,13.3.2-.3ZM56.9,83.1l-8.9,21.4,12.3-8.4-3.4-12.9ZM42.5,87.2l4.4,17,9.3-22.5-13.6-4.6-.2,10.1ZM57.8,82.8l3.3,12.6,6.6-4.6-9.9-8ZM58.4,82l10.1,8.2,10.9-7.5-21.1-.7ZM34.8,79.9l-6.5,7,12.7-.2-6.1-6.8ZM8.3,70.6l18.4,15.9.8-14.3-19.2-1.5ZM28.4,72.8l-.7,13.3,6.4-6.9-5.7-6.4ZM35.5,79.2l6.1,6.8.2-9.2-3-1-3.2,3.4ZM57.8,81l21.8.7-15.3-12.8-6.5,12.1ZM43,71l13.1,9.3-6.8-23-6.3,13.7ZM50.3,57.2l6.8,22.9,6.4-11.9-13.2-11ZM42.8,76.1l11.1,3.8-11-7.8v4ZM29.6,72.7l5.2,5.8,2.8-3-8-2.8ZM39.4,75l2.3.8v-3.4c0,0-2.3,2.6-2.3,2.6ZM28.6,71.3l9.8,3.3,3.3-3.6-7.5-15.3-5.6,15.6ZM7.6,69.5l19.7,1.6-5.1-25.3-14.6,23.7ZM34.7,54.4l7.6,15.6,6.5-14.2-7.7-19.4-6.4,18ZM23,45.1l5,24.6,5.6-15.5,6.9-19.5.5.2-.4-.3,11.6-15.1.4.3-.3-.4,14-11.6-31.9,8.7,5.6,18.3-.5.2.2.4-16.7,9.7ZM9.3,43l-1.9,24.9,14.5-23.7,10.9-27.2-23.6,26ZM51.2,56.7l12.8,10.7,4.1-7.6-16.9-3.2ZM53,21.2l-3,33.1,15.5-17.9-12.5-15.2ZM41.8,34.6l7.2,19.1,3.2-32.6-10.4,13.5ZM33.7,17.8l-10.5,26.2,15.7-9.1-5.2-17.1Z"/>
  <circle class="cls-1" cx="32.9" cy="16.3" r="6.8"/>
  <circle class="cls-1" cx="80.6" cy="100.7" r="6.8"/>
  <circle class="cls-1" cx="57" cy="81.5" r="6.8"/>
  <circle class="cls-1" cx="46.8" cy="105.8" r="6.8"/>
  <circle class="cls-1" cx="61.9" cy="128.6" r="4.5"/>
  <circle class="cls-1" cx="81" cy="82.3" r="4.5"/>
  <circle class="cls-1" cx="87.8" cy="131.5" r="4.5"/>
  <circle class="cls-1" cx="22.5" cy="45.4" r="4.5"/>
  <circle class="cls-1" cx="66.2" cy="36.4" r="4.5"/>
  <circle class="cls-1" cx="49.4" cy="55.8" r="4.5"/>
  <circle class="cls-1" cx="68.8" cy="59.4" r="4.5"/>
  <circle class="cls-1" cx="27.1" cy="87.5" r="4.5"/>
  <circle class="cls-1" cx="6.8" cy="69.9" r="6.8"/>
  <circle class="cls-1" cx="8.8" cy="42.8" r="3.4"/>
  <circle class="cls-1" cx="28" cy="71.6" r="3.4"/>
  <circle class="cls-1" cx="34.2" cy="54.4" r="3.4"/>
  <circle class="cls-1" cx="52.7" cy="19.9" r="3.4"/>
  <circle class="cls-1" cx="41.1" cy="35" r="3.4"/>
  <circle class="cls-1" cx="42.3" cy="71.1" r="3.4"/>
  <circle class="cls-1" cx="42" cy="87.3" r="3.4"/>
  <circle class="cls-1" cx="64.6" cy="110.8" r="3.4"/>
  <circle class="cls-1" cx="75.5" cy="121.1" r="3.4"/>
  <circle class="cls-1" cx="68.4" cy="6.8" r="6.8"/>
  <path class="cls-2" d="M217.3,15.2v-2c0-.1,0-.2,0-.3,0-.1,0-.3,0-.4s0-.1,0-.2v-.5c-.1,0-.1-.1-.1-.1,0-.2-.1-.4-.2-.6-2.3-7.5-10.2-11.6-17.7-9.3-2,.6-3.9,1.7-5.4,3.1-5.6-5.4-14.6-5.3-20,.3-2.5,2.5-3.9,5.9-4,9.4v50.3c-.1,2.5,1.8,4.6,4.3,4.7,2.5.1,4.6-1.8,4.7-4.3,0-.1,0-.3,0-.4V15.3c0-2.8,2.3-5.6,5.1-5.6s5,2.8,5,5.6v49.7c-.1,2.5,1.8,4.6,4.3,4.7,2.5.1,4.6-1.8,4.7-4.3,0-.1,0-.3,0-.4V15.2c0-1.4.5-2.8,1.5-3.8.9-1.1,2.2-1.7,3.6-1.8,2.8,0,5.1,2.8,5.1,5.6v49.7c-.3,2.5,1.5,4.7,4,5,2.5.3,4.7-1.5,5-4,0-.3,0-.7,0-1l.2-49.7ZM132.5,15.2v-2c0-.1,0-.2,0-.3,0-.1,0-.3,0-.4s0-.1,0-.2v-.5c-.1,0-.1-.1-.1-.1,0-.2-.1-.4-.2-.6-2.3-7.5-10.2-11.6-17.7-9.3-2,.6-3.9,1.7-5.4,3.1-5.6-5.4-14.6-5.3-20,.3-2.5,2.5-3.9,5.9-4,9.4v50.3c-.1,2.5,1.8,4.6,4.3,4.7s4.6-1.8,4.7-4.3c0-.1,0-.3,0-.4V15.3c0-2.8,2.3-5.6,5.1-5.6s5,2.8,5,5.6v49.7c-.2,2.5,1.6,4.7,4.1,4.9s4.7-1.6,4.9-4.1c0-.3,0-.6,0-.8V15.2c0-1.4.5-2.8,1.5-3.8.9-1.1,2.2-1.7,3.6-1.8,2.8,0,5.1,2.8,5.1,5.6v49.7c-.3,2.5,1.5,4.7,4,5,2.5.3,4.7-1.5,5-4,0-.3,0-.7,0-1l.2-49.7ZM250.1,15.1c-.2-7.8-6.8-13.9-14.6-13.7-7.5.2-13.5,6.3-13.7,13.8v40.1c.2,7.8,6.6,14,14.4,13.8,7.5-.2,13.6-6.2,13.8-13.7V15.1ZM241.1,55.3c0,2.8-2.3,5.6-5.1,5.6s-5.1-2.8-5.1-5.6V15.2c0-2.8,2.3-5.6,5.1-5.6s5.1,2.8,5.1,5.6v40.1ZM315.7,51c-.3-2.5-2.5-4.3-5-4-2.1.2-3.7,1.9-4,4v4.3c0,2.8-2.3,5.6-5.1,5.6s-5-2.8-5-5.6V15.2c0-2.8,2.3-5.6,5.1-5.6s5.1,2.8,5.1,5.6v10.7c0,2.4-1.6,5-3.9,5.6h0c-2.4.2-4.1,2.3-3.9,4.6.2,2.1,1.8,3.7,3.9,3.9h0c7.8,0,13-6.3,13-14.1v-11.2c-.4-7.8-7-13.8-14.8-13.4-7.4.4-13.3,6.4-13.4,13.8v40.3c0,7.8,6.4,14,14.1,14,7.8,0,14.1-6.2,14.1-14h0c0,0-.1-4.4-.1-4.4ZM165.3,51.4c.2-2.5-1.6-4.7-4.1-4.9-2.5-.2-4.7,1.6-4.9,4.1,0,.3,0,.6,0,.8v4.2c0,2.8-2.3,5.6-5.1,5.6h0c-2.8,0-5-2.8-5-5.6V15.6c0-2.8,2.3-5.6,5.1-5.6s5.1,2.8,5.1,5.6v10.7c0,2.4-1.6,5-3.9,5.6h0c-2.4.2-4.1,2.3-3.9,4.6.2,2.1,1.8,3.7,3.9,3.9h0c7.8,0,13-6.3,13-14.1v-11.2c-.4-7.8-7-13.8-14.8-13.4-7.4.4-13.3,6.4-13.4,13.8v40.3c0,7.8,6.4,14,14.1,14,7.8,0,14.1-6.2,14.1-14h0c0,0,0-4.4,0-4.4ZM282.9,15.1c0-7.8-6.4-14.1-14.2-14.1-7.8,0-14.1,6.4-14.1,14.2v49.7c-.2,2.5,1.6,4.7,4.1,4.9,2.5.2,4.7-1.6,4.9-4.1,0-.3,0-.6,0-.8V15.2c0-2.8,2.3-5.6,5.1-5.6s5.1,2.8,5.1,5.6v11.6c.3,2.5,2.5,4.3,5,4,2.1-.2,3.7-1.9,4-4v-11.7h0Z"/>
  <circle class="cls-1" cx="203" cy="123.7" r="9.1"/>
</svg>